# xmcd
#
# Track frame offsets:
#	150
#	16068
#	33585
#	49190
#	66228
#	83878
#	102413
#	121418
#	135978
#	155595
#	174635
#	192915
#	209275
#	226823
#	245130
#
# Disc length: 3511 seconds
#
# Revision: 1
# Processed by: cddbd v1.5.1PL0 Copyright (c) Steve Scherf et al.
# Submitted via: CDex 1.50Beta5
#
DISCID=cc0db50f
DTITLE=ティム・ハーデン・トリオ - NEW MUSIC JAZZ CHRISTMAS
DYEAR=1900
DGENRE=Jazz
TTITLE0=・イブ
TTITLE1=最後のHolyNight
TTITLE2=ロッヂで待つクリスマス
TTITLE3=MIDNIGHT FLIGHT
TTITLE4=CHRISTMAS CALENAR
TTITLE5=の夜
TTITLE6=粉雪
TTITLE7=シャ・ラ・ラ
TTITLE8=恋人がサンタクロース
TTITLE9=FOR YOU
TTITLE10=ひとりぽっちのクリスマスソング
TTITLE11=Merry X'mas in Summer
TTITLE12=ノースリーブのクリスマス
TTITLE13=I LOVE YOU
TTITLE14=12月のエイプリル・フール
EXTD=
EXTT0=
EXTT1=
EXTT2=
EXTT3=
EXTT4=
EXTT5=
EXTT6=
EXTT7=
EXTT8=
EXTT9=
EXTT10=
EXTT11=
EXTT12=
EXTT13=
EXTT14=
PLAYORDER=
